<svg width="58" height="58" viewBox="0 0 58 58" fill="none" xmlns="http://www.w3.org/2000/svg">
<g opacity="0.46">
<circle cx="29" cy="29" r="29" fill="#AA9AE5" fill-opacity="0.26"/>
<path d="M28.1703 38.3759C28.3586 38.5411 28.6402 38.5414 28.829 38.3765L43.329 25.7087C43.4375 25.6139 43.4999 25.4768 43.5 25.3327C43.5001 25.1885 43.4381 25.0513 43.3297 24.9563L40.7318 22.6771C40.5432 22.5116 40.261 22.5116 40.0723 22.6771L28.5008 32.8288L16.9286 22.625C16.74 22.4587 16.4572 22.4583 16.2682 22.6241L13.6703 24.9033C13.562 24.9982 13.5 25.1352 13.5 25.2792C13.5 25.4231 13.562 25.5601 13.6703 25.655L28.1703 38.3759Z" fill="white" stroke="white" stroke-linejoin="round"/>
</g>
</svg>
