<?xml version="1.0" encoding="UTF-8"?>
<svg xmlns="http://www.w3.org/2000/svg" xmlns:xlink="http://www.w3.org/1999/xlink" viewBox="0 0 50 50" width="50px" height="50px">
<g id="surface89998872">
<path style=" stroke:none;fill-rule:nonzero;fill:rgb(66.666669%,60.392159%,89.803922%);fill-opacity:1;" d="M 9 7 L 12 41 L 26 45 L 40 41 C 41 29.667969 42 18.332031 43 7 Z M 11.183594 9 L 40.816406 9 L 38.128906 39.457031 L 26 42.917969 L 13.871094 39.457031 Z M 18.550781 15 L 17.589844 27 L 30.578125 27 L 30.167969 32 L 26 32.617188 L 21.878906 32 L 21.699219 30 L 17.839844 30 L 18.230469 35 L 25.992188 37 L 33.761719 35 L 34.75 23 L 22.089844 23 L 22.410156 19 L 30.769531 19 L 31 21 L 34.699219 21 L 34 15 Z M 18.550781 15 "/>
</g>
</svg>
