<?xml version="1.0" encoding="UTF-8"?>
<svg xmlns="http://www.w3.org/2000/svg" xmlns:xlink="http://www.w3.org/1999/xlink" viewBox="0 0 50 50" width="50px" height="50px">
<g id="surface89994678">
<path style=" stroke:none;fill-rule:nonzero;fill:rgb(66.666669%,60.392159%,89.803922%);fill-opacity:1;" d="M 5.464844 2 C 5.183594 2 4.917969 2.117188 4.726562 2.324219 C 4.539062 2.53125 4.445312 2.808594 4.46875 3.089844 L 7.988281 42.515625 C 8.023438 42.925781 8.3125 43.273438 8.707031 43.390625 L 24.71875 47.960938 C 24.898438 48.011719 25.089844 48.011719 25.269531 47.960938 L 41.292969 43.390625 C 41.691406 43.273438 41.976562 42.925781 42.011719 42.515625 L 45.53125 3.089844 C 45.554688 2.808594 45.460938 2.53125 45.273438 2.324219 C 45.082031 2.117188 44.816406 2 44.535156 2 Z M 6.558594 4 L 43.441406 4 L 40.082031 41.65625 L 24.992188 45.960938 L 9.917969 41.65625 Z M 19 10 C 18.449219 10 18 10.449219 18 11 L 18 29.628906 L 12.269531 28.042969 C 11.964844 27.957031 11.644531 28.019531 11.394531 28.207031 C 11.144531 28.398438 11 28.691406 11 29.003906 L 11 33.949219 C 11 34.398438 11.300781 34.792969 11.730469 34.910156 L 22.730469 37.960938 C 23.035156 38.046875 23.355469 37.984375 23.605469 37.796875 C 23.855469 37.605469 24 37.3125 24 37 L 24 11 C 24 10.449219 23.550781 10 23 10 Z M 27 10 C 26.449219 10 26 10.449219 26 11 L 26 28 C 26 28.296875 26.128906 28.574219 26.355469 28.765625 C 26.582031 28.957031 26.878906 29.035156 27.167969 28.988281 L 32.917969 27.996094 L 32.800781 29.769531 L 26.734375 31.4375 C 26.300781 31.554688 26 31.949219 26 32.398438 L 26 37 C 26 37.3125 26.144531 37.605469 26.394531 37.796875 C 26.640625 37.984375 26.964844 38.046875 27.265625 37.964844 L 37.265625 35.214844 C 37.667969 35.105469 37.960938 34.753906 37.996094 34.335938 L 39.050781 22.085938 C 39.078125 21.78125 38.964844 21.484375 38.742188 21.273438 C 38.519531 21.0625 38.214844 20.96875 37.914062 21.011719 L 32 21.847656 L 32 16 L 38.65625 16 C 39.171875 16 39.605469 15.601562 39.652344 15.085938 L 39.996094 11.085938 C 40.019531 10.808594 39.925781 10.53125 39.738281 10.324219 C 39.546875 10.117188 39.28125 10 39 10 Z M 20 12 L 22 12 L 22 35.6875 L 13 33.191406 L 13 30.320312 L 18.730469 31.910156 C 19.035156 31.992188 19.355469 31.929688 19.605469 31.742188 C 19.855469 31.550781 20 31.257812 20 30.945312 Z M 28 12 L 37.910156 12 L 37.738281 14 L 31 14 C 30.449219 14 30 14.449219 30 15 L 30 23 C 30 23.289062 30.125 23.566406 30.34375 23.753906 C 30.5625 23.945312 30.855469 24.03125 31.140625 23.992188 L 36.949219 23.167969 L 36.0625 33.472656 L 28 35.6875 L 28 33.164062 L 34.015625 31.507812 C 34.425781 31.394531 34.71875 31.035156 34.75 30.613281 L 35 26.863281 C 35.019531 26.554688 34.898438 26.257812 34.667969 26.050781 C 34.441406 25.847656 34.132812 25.757812 33.832031 25.808594 L 28 26.8125 Z M 28 12 "/>
</g>
</svg>
