<?xml version="1.0" encoding="UTF-8"?>
<svg xmlns="http://www.w3.org/2000/svg" xmlns:xlink="http://www.w3.org/1999/xlink" viewBox="0 0 32 32" width="32px" height="32px">
<g id="surface90047901">
<path style=" stroke:none;fill-rule:nonzero;fill:rgb(66.666669%,60.392159%,89.803922%);fill-opacity:1;" d="M 21.300781 6 C 21.144531 6 21 6.125 21 6.300781 L 21 11.796875 L 19.753906 11.070312 C 19.675781 11.023438 19.589844 11 19.5 11 C 19.410156 11 19.324219 11.023438 19.246094 11.070312 L 16.25 12.816406 C 16.097656 12.90625 16 13.074219 16 13.25 L 16 16.746094 C 16 16.929688 16.097656 17.09375 16.25 17.183594 L 19.246094 18.929688 C 19.324219 18.976562 19.410156 18.996094 19.5 18.996094 C 19.589844 18.996094 19.675781 18.976562 19.753906 18.929688 L 22.75 17.183594 C 22.902344 17.09375 23 16.925781 23 16.746094 L 23 7.230469 C 23 7.050781 22.90625 6.890625 22.75 6.796875 L 21.449219 6.039062 C 21.398438 6.011719 21.351562 6 21.300781 6 Z M 11.5 11 C 11.414062 11 11.324219 11.023438 11.246094 11.070312 L 8.25 12.816406 C 8.097656 12.90625 8 13.074219 8 13.25 L 8 16.746094 C 8 16.929688 8.097656 17.09375 8.25 17.183594 L 11.246094 18.929688 C 11.402344 19.019531 11.597656 19.019531 11.753906 18.929688 L 14.746094 17.183594 C 14.902344 17.09375 15 16.925781 15 16.746094 L 15 13.25 C 15 13.070312 14.902344 12.90625 14.746094 12.816406 L 11.753906 11.070312 C 11.675781 11.023438 11.585938 11 11.5 11 Z M 27.5 11 C 27.410156 11 27.324219 11.023438 27.246094 11.070312 L 24.25 12.816406 C 24.097656 12.90625 24 13.074219 24 13.25 L 24 16.746094 C 24 16.929688 24.097656 17.09375 24.25 17.183594 L 27.15625 18.9375 C 27.3125 19.035156 27.507812 19.035156 27.667969 18.945312 L 29.09375 18.113281 C 29.242188 18.027344 29.242188 17.8125 29.09375 17.726562 L 26 15.902344 L 26 14.109375 L 27.5 13.234375 L 29 14.109375 L 29 15.359375 C 29 15.527344 29.140625 15.550781 29.234375 15.496094 C 29.613281 15.273438 30.753906 14.613281 30.753906 14.613281 C 30.90625 14.523438 31 14.359375 31 14.179688 L 31 13.25 C 31 13.070312 30.902344 12.90625 30.75 12.816406 L 27.753906 11.070312 C 27.675781 11.023438 27.589844 11 27.5 11 Z M 3.5 11.003906 C 3.410156 11.003906 3.324219 11.027344 3.246094 11.074219 L 0.25 12.816406 C 0.0976562 12.90625 0 13.074219 0 13.253906 L 0 17.71875 C 0 17.933594 0.234375 18.070312 0.425781 17.960938 L 1.75 17.1875 C 1.90625 17.097656 2 16.933594 2 16.757812 L 2 14.113281 L 3.5 13.238281 L 5 14.113281 L 5 16.757812 C 5 16.933594 5.09375 17.097656 5.25 17.1875 L 6.578125 17.960938 C 6.765625 18.070312 7 17.933594 7 17.71875 L 7 13.253906 C 7 13.074219 6.902344 12.90625 6.75 12.816406 L 3.753906 11.074219 C 3.675781 11.027344 3.589844 11.003906 3.5 11.003906 Z M 19.5 13.238281 L 21 14.113281 L 21 15.886719 L 19.5 16.761719 L 18 15.886719 L 18 14.113281 Z M 27.5 14.003906 L 26.644531 14.503906 L 26.644531 15.503906 L 27.5 16 L 28.355469 15.503906 L 28.355469 14.503906 Z M 15.40625 18 C 15.304688 18 15.199219 18.023438 15.109375 18.074219 L 12.296875 19.699219 C 12.113281 19.800781 12 20 12 20.210938 L 12 23.457031 C 12 23.667969 12.117188 23.863281 12.296875 23.96875 L 13.039062 24.390625 C 13.390625 24.566406 13.523438 24.566406 13.683594 24.566406 C 14.214844 24.566406 14.515625 24.25 14.515625 23.691406 L 14.515625 20.484375 C 14.515625 20.433594 14.476562 20.398438 14.433594 20.398438 L 14.078125 20.398438 C 14.027344 20.398438 13.996094 20.4375 13.996094 20.484375 L 13.996094 23.691406 C 13.996094 23.933594 13.738281 24.183594 13.320312 23.972656 L 12.550781 23.53125 C 12.523438 23.515625 12.507812 23.484375 12.507812 23.457031 L 12.507812 20.210938 C 12.507812 20.179688 12.519531 20.144531 12.550781 20.132812 L 15.363281 18.511719 C 15.390625 18.496094 15.425781 18.496094 15.449219 18.511719 L 18.265625 20.132812 C 18.292969 20.144531 18.308594 20.175781 18.308594 20.210938 L 18.308594 23.457031 C 18.308594 23.488281 18.289062 23.519531 18.265625 23.535156 L 15.449219 25.160156 C 15.425781 25.175781 15.386719 25.175781 15.363281 25.160156 L 14.644531 24.734375 C 14.625 24.722656 14.59375 24.714844 14.574219 24.726562 C 14.375 24.84375 14.335938 24.859375 14.152344 24.921875 C 14.101562 24.9375 14.035156 24.96875 14.175781 25.046875 L 15.109375 25.601562 C 15.203125 25.648438 15.304688 25.679688 15.40625 25.679688 C 15.511719 25.679688 15.617188 25.648438 15.699219 25.597656 L 18.511719 23.96875 C 18.695312 23.867188 18.808594 23.667969 18.808594 23.457031 L 18.808594 20.210938 C 18.808594 20.003906 18.691406 19.804688 18.511719 19.699219 L 15.699219 18.074219 C 15.613281 18.023438 15.507812 18 15.40625 18 Z M 19.792969 19.496094 C 19.507812 19.496094 19.253906 19.726562 19.253906 20.035156 C 19.253906 20.332031 19.496094 20.574219 19.792969 20.574219 C 20.089844 20.574219 20.332031 20.332031 20.332031 20.035156 C 20.332031 19.726562 20.085938 19.492188 19.792969 19.496094 Z M 19.789062 19.582031 C 20.042969 19.582031 20.246094 19.78125 20.246094 20.035156 C 20.246094 20.28125 20.039062 20.488281 19.789062 20.492188 C 19.539062 20.492188 19.335938 20.289062 19.335938 20.035156 C 19.335938 19.78125 19.539062 19.582031 19.789062 19.582031 Z M 19.589844 19.730469 L 19.589844 20.335938 L 19.703125 20.335938 L 19.703125 20.09375 L 19.8125 20.09375 C 19.855469 20.09375 19.867188 20.113281 19.875 20.144531 C 19.875 20.152344 19.894531 20.308594 19.898438 20.335938 L 20.023438 20.335938 C 20.011719 20.308594 20 20.226562 19.996094 20.175781 C 19.980469 20.097656 19.976562 20.042969 19.894531 20.039062 C 19.9375 20.023438 20.011719 20 20.011719 19.886719 C 20.011719 19.726562 19.871094 19.726562 19.796875 19.726562 Z M 19.707031 19.824219 L 19.804688 19.824219 C 19.832031 19.824219 19.890625 19.824219 19.890625 19.90625 C 19.890625 19.941406 19.875 19.996094 19.796875 19.996094 L 19.707031 19.996094 Z M 16.160156 20.324219 C 15.355469 20.324219 14.882812 20.664062 14.882812 21.230469 C 14.882812 21.847656 15.359375 22.011719 16.125 22.089844 C 17.046875 22.183594 17.117188 22.3125 17.117188 22.496094 C 17.117188 22.808594 16.867188 22.941406 16.269531 22.941406 C 15.527344 22.941406 15.363281 22.757812 15.308594 22.386719 C 15.304688 22.347656 15.269531 22.320312 15.222656 22.320312 L 14.859375 22.320312 C 14.816406 22.320312 14.777344 22.351562 14.777344 22.402344 C 14.777344 22.875 15.035156 23.441406 16.265625 23.441406 C 17.167969 23.4375 17.679688 23.089844 17.679688 22.476562 C 17.679688 21.867188 17.269531 21.703125 16.402344 21.589844 C 15.527344 21.472656 15.441406 21.410156 15.441406 21.207031 C 15.441406 21.035156 15.511719 20.816406 16.160156 20.816406 C 16.738281 20.816406 16.953125 20.941406 17.042969 21.332031 C 17.054688 21.367188 17.082031 21.394531 17.117188 21.394531 L 17.484375 21.394531 C 17.507812 21.394531 17.527344 21.382812 17.542969 21.371094 C 17.558594 21.351562 17.566406 21.332031 17.5625 21.308594 C 17.503906 20.632812 17.0625 20.324219 16.160156 20.324219 Z M 16.160156 20.324219 "/>
</g>
</svg>
