<?xml version="1.0" encoding="UTF-8"?>
<svg xmlns="http://www.w3.org/2000/svg" xmlns:xlink="http://www.w3.org/1999/xlink" viewBox="0 0 16 16" width="16px" height="16px">
<g id="surface89973688">
<path style=" stroke:none;fill-rule:nonzero;fill:rgb(66.666669%,60.392159%,89.803922%);fill-opacity:1;" d="M 9.300781 8 C 9.300781 8.71875 8.71875 9.300781 8 9.300781 C 7.28125 9.300781 6.699219 8.71875 6.699219 8 C 6.699219 7.28125 7.28125 6.699219 8 6.699219 C 8.71875 6.699219 9.300781 7.28125 9.300781 8 Z M 9.300781 8 "/>
<path style=" stroke:none;fill-rule:nonzero;fill:rgb(66.666669%,60.392159%,89.803922%);fill-opacity:1;" d="M 8 9.398438 C 7.226562 9.398438 6.601562 8.773438 6.601562 8 C 6.601562 7.226562 7.226562 6.601562 8 6.601562 C 8.773438 6.601562 9.398438 7.226562 9.398438 8 C 9.398438 8.773438 8.773438 9.398438 8 9.398438 Z M 8 6.800781 C 7.339844 6.800781 6.800781 7.339844 6.800781 8 C 6.800781 8.660156 7.339844 9.199219 8 9.199219 C 8.660156 9.199219 9.199219 8.660156 9.199219 8 C 9.199219 7.339844 8.660156 6.800781 8 6.800781 Z M 8 6.800781 "/>
<path style=" stroke:none;fill-rule:nonzero;fill:rgb(66.666669%,60.392159%,89.803922%);fill-opacity:1;" d="M 4.894531 15.101562 C 4.550781 15.101562 4.242188 15.023438 3.96875 14.867188 C 3.511719 14.609375 3.195312 14.164062 3.03125 13.542969 C 2.839844 12.824219 2.859375 11.863281 3.097656 10.769531 C 1.191406 10.113281 0.101562 9.105469 0.101562 8 C 0.101562 6.894531 1.191406 5.886719 3.097656 5.230469 C 2.859375 4.136719 2.835938 3.175781 3.03125 2.457031 C 3.195312 1.835938 3.511719 1.390625 3.96875 1.132812 C 4.238281 0.976562 4.550781 0.898438 4.894531 0.898438 C 5.773438 0.898438 6.871094 1.445312 8 2.4375 C 9.128906 1.445312 10.230469 0.902344 11.105469 0.902344 C 11.449219 0.902344 11.757812 0.980469 12.03125 1.132812 C 12.488281 1.390625 12.800781 1.835938 12.96875 2.457031 C 13.160156 3.175781 13.136719 4.136719 12.902344 5.230469 C 14.808594 5.886719 15.898438 6.894531 15.898438 8 C 15.898438 9.105469 14.808594 10.113281 12.902344 10.769531 C 13.136719 11.863281 13.160156 12.824219 12.96875 13.542969 C 12.800781 14.164062 12.488281 14.609375 12.03125 14.867188 C 11.757812 15.019531 11.449219 15.097656 11.105469 15.097656 C 10.226562 15.097656 9.128906 14.554688 8 13.5625 C 6.871094 14.554688 5.773438 15.101562 4.894531 15.101562 Z M 3.867188 11 C 3.667969 11.945312 3.648438 12.75 3.804688 13.335938 C 3.914062 13.742188 4.101562 14.023438 4.363281 14.171875 C 4.511719 14.257812 4.691406 14.300781 4.894531 14.300781 C 5.574219 14.300781 6.46875 13.84375 7.417969 13.011719 C 6.941406 12.53125 6.476562 11.988281 6.035156 11.394531 C 5.265625 11.3125 4.539062 11.179688 3.867188 11 Z M 8.582031 13.011719 C 9.53125 13.84375 10.425781 14.300781 11.105469 14.300781 C 11.308594 14.300781 11.488281 14.257812 11.636719 14.171875 C 11.898438 14.023438 12.085938 13.742188 12.195312 13.335938 C 12.351562 12.75 12.332031 11.945312 12.132812 11 C 11.460938 11.179688 10.730469 11.3125 9.964844 11.394531 C 9.523438 11.988281 9.058594 12.53125 8.582031 13.011719 Z M 7.113281 11.480469 C 7.402344 11.832031 7.699219 12.164062 8 12.464844 C 8.296875 12.164062 8.597656 11.835938 8.886719 11.480469 C 8.585938 11.492188 8.289062 11.5 8 11.5 C 7.710938 11.5 7.410156 11.492188 7.113281 11.480469 Z M 6.46875 10.636719 C 6.96875 10.679688 7.484375 10.699219 8 10.699219 C 8.515625 10.699219 9.03125 10.679688 9.527344 10.636719 C 9.828125 10.21875 10.109375 9.78125 10.371094 9.335938 C 10.625 8.90625 10.863281 8.457031 11.082031 8 C 10.863281 7.542969 10.625 7.09375 10.371094 6.664062 C 10.109375 6.21875 9.828125 5.78125 9.527344 5.363281 C 9.03125 5.320312 8.515625 5.300781 8 5.300781 C 7.480469 5.300781 6.96875 5.320312 6.46875 5.363281 C 6.171875 5.78125 5.890625 6.21875 5.625 6.664062 C 5.371094 7.09375 5.132812 7.542969 4.917969 8 C 5.132812 8.457031 5.371094 8.90625 5.625 9.335938 C 5.886719 9.78125 6.171875 10.21875 6.46875 10.636719 Z M 11.5 8.957031 C 11.355469 9.226562 11.210938 9.488281 11.0625 9.742188 C 10.910156 10 10.75 10.257812 10.585938 10.511719 C 11.058594 10.4375 11.511719 10.34375 11.9375 10.230469 C 11.820312 9.820312 11.671875 9.394531 11.5 8.957031 Z M 4.0625 10.230469 C 4.484375 10.34375 4.941406 10.4375 5.414062 10.507812 C 5.246094 10.253906 5.085938 9.996094 4.9375 9.742188 C 4.789062 9.488281 4.640625 9.226562 4.5 8.957031 C 4.328125 9.390625 4.179688 9.816406 4.0625 10.230469 Z M 11.964844 8 C 12.269531 8.679688 12.519531 9.347656 12.703125 9.996094 C 14.183594 9.472656 15.101562 8.714844 15.101562 8 C 15.101562 7.285156 14.183594 6.527344 12.703125 6.003906 C 12.519531 6.652344 12.269531 7.320312 11.964844 8 Z M 3.292969 6.003906 C 1.816406 6.527344 0.898438 7.285156 0.898438 8 C 0.898438 8.714844 1.816406 9.472656 3.292969 9.996094 C 3.480469 9.347656 3.730469 8.679688 4.035156 8 C 3.730469 7.324219 3.480469 6.652344 3.292969 6.003906 Z M 4.0625 5.769531 C 4.179688 6.179688 4.328125 6.609375 4.5 7.042969 C 4.640625 6.777344 4.789062 6.511719 4.9375 6.257812 C 5.085938 6 5.246094 5.746094 5.414062 5.492188 C 4.941406 5.5625 4.484375 5.65625 4.0625 5.769531 Z M 10.585938 5.488281 C 10.75 5.746094 10.910156 6.003906 11.0625 6.257812 C 11.210938 6.511719 11.355469 6.773438 11.5 7.042969 C 11.671875 6.609375 11.820312 6.179688 11.9375 5.769531 C 11.511719 5.65625 11.058594 5.5625 10.585938 5.488281 Z M 4.894531 1.699219 C 4.691406 1.699219 4.511719 1.742188 4.363281 1.828125 C 4.101562 1.976562 3.914062 2.257812 3.804688 2.664062 C 3.648438 3.25 3.667969 4.054688 3.867188 5 C 4.539062 4.820312 5.269531 4.6875 6.035156 4.605469 C 6.476562 4.011719 6.941406 3.46875 7.417969 2.988281 C 6.46875 2.15625 5.574219 1.699219 4.894531 1.699219 Z M 9.964844 4.605469 C 10.730469 4.6875 11.460938 4.820312 12.132812 5 C 12.332031 4.054688 12.351562 3.25 12.195312 2.664062 C 12.085938 2.257812 11.898438 1.976562 11.636719 1.828125 C 11.488281 1.742188 11.308594 1.699219 11.105469 1.699219 C 10.425781 1.699219 9.53125 2.15625 8.582031 2.988281 C 9.058594 3.46875 9.523438 4.011719 9.964844 4.605469 Z M 8 4.5 C 8.289062 4.5 8.585938 4.507812 8.886719 4.519531 C 8.597656 4.167969 8.300781 3.835938 8 3.535156 C 7.699219 3.835938 7.402344 4.167969 7.113281 4.519531 C 7.414062 4.507812 7.710938 4.5 8 4.5 Z M 8 4.5 "/>
<path style=" stroke:none;fill-rule:nonzero;fill:rgb(66.666669%,60.392159%,89.803922%);fill-opacity:1;" d="M 4.894531 1 C 5.792969 1 6.894531 1.582031 8 2.574219 C 9.109375 1.582031 10.207031 1 11.105469 1 C 11.429688 1 11.726562 1.074219 11.984375 1.21875 C 12.414062 1.464844 12.714844 1.890625 12.871094 2.480469 C 13.085938 3.265625 13.042969 4.230469 12.785156 5.296875 C 14.628906 5.914062 15.800781 6.886719 15.800781 8 C 15.800781 9.113281 14.628906 10.085938 12.785156 10.703125 C 13.054688 11.855469 13.097656 12.847656 12.871094 13.519531 C 12.710938 14.109375 12.414062 14.535156 11.984375 14.78125 C 11.726562 14.925781 11.492188 15 11.167969 15 C 11.167969 15 11.082031 15 11.082031 15 C 10.183594 15 9.105469 14.417969 8 13.429688 C 6.894531 14.417969 5.792969 15 4.894531 15 C 4.570312 15 4.273438 14.925781 4.015625 14.78125 C 3.585938 14.535156 3.285156 14.109375 3.128906 13.519531 C 2.890625 12.773438 2.9375 11.796875 3.214844 10.703125 C 1.371094 10.085938 0.199219 9.113281 0.199219 8 C 0.199219 6.886719 1.371094 5.914062 3.214844 5.296875 C 3.078125 4.6875 2.988281 4.117188 2.984375 3.601562 C 2.984375 3.191406 3.039062 2.808594 3.128906 2.480469 C 3.285156 1.890625 3.585938 1.464844 4.015625 1.21875 C 4.273438 1.074219 4.570312 1 4.894531 1 M 3.792969 5.121094 C 4.488281 4.933594 5.257812 4.789062 6.089844 4.699219 C 6.566406 4.058594 7.0625 3.480469 7.566406 2.984375 C 6.589844 2.113281 5.640625 1.597656 4.894531 1.597656 C 4.675781 1.597656 4.480469 1.648438 4.3125 1.742188 C 4.027344 1.902344 3.824219 2.203125 3.707031 2.636719 C 3.535156 3.277344 3.574219 4.144531 3.792969 5.121094 M 12.207031 5.121094 C 12.425781 4.144531 12.464844 3.277344 12.292969 2.636719 C 12.175781 2.207031 11.972656 1.90625 11.6875 1.742188 C 11.519531 1.648438 11.324219 1.601562 11.105469 1.601562 C 10.359375 1.601562 9.410156 2.113281 8.4375 2.984375 C 8.9375 3.480469 9.4375 4.058594 9.910156 4.699219 C 10.738281 4.789062 11.511719 4.929688 12.207031 5.121094 M 6.894531 4.632812 C 7.253906 4.613281 7.617188 4.59375 7.992188 4.59375 C 8.367188 4.59375 8.742188 4.613281 9.105469 4.632812 C 8.742188 4.175781 8.371094 3.761719 8 3.390625 C 7.628906 3.761719 7.257812 4.175781 6.894531 4.632812 M 8 10.800781 C 8.550781 10.800781 9.082031 10.777344 9.582031 10.730469 C 9.886719 10.308594 10.179688 9.859375 10.457031 9.386719 C 10.730469 8.929688 10.972656 8.460938 11.191406 8 C 10.972656 7.539062 10.730469 7.070312 10.457031 6.613281 C 10.179688 6.140625 9.886719 5.691406 9.582031 5.269531 C 9.082031 5.222656 8.550781 5.199219 8 5.199219 C 7.449219 5.199219 6.917969 5.222656 6.414062 5.269531 C 6.113281 5.691406 5.816406 6.140625 5.539062 6.613281 C 5.269531 7.070312 5.027344 7.539062 4.808594 8 C 5.027344 8.460938 5.269531 8.929688 5.539062 9.386719 C 5.816406 9.859375 6.113281 10.308594 6.414062 10.730469 C 6.917969 10.777344 7.449219 10.800781 8 10.800781 M 11.507812 7.28125 C 11.734375 6.742188 11.921875 6.207031 12.0625 5.699219 C 11.550781 5.558594 10.988281 5.445312 10.375 5.359375 C 10.582031 5.664062 10.78125 5.980469 10.976562 6.308594 C 11.164062 6.632812 11.34375 6.957031 11.507812 7.28125 M 4.488281 7.28125 C 4.65625 6.957031 4.832031 6.632812 5.023438 6.308594 C 5.214844 5.980469 5.417969 5.664062 5.621094 5.359375 C 5.011719 5.445312 4.449219 5.558594 3.9375 5.699219 C 4.078125 6.210938 4.265625 6.742188 4.488281 7.28125 M 12.636719 10.125 C 14.253906 9.578125 15.199219 8.773438 15.199219 8 C 15.199219 7.226562 14.253906 6.421875 12.636719 5.875 C 12.445312 6.554688 12.183594 7.273438 11.855469 8 C 12.183594 8.726562 12.445312 9.441406 12.636719 10.125 M 3.363281 10.125 C 3.550781 9.445312 3.816406 8.726562 4.144531 8 C 3.816406 7.273438 3.550781 6.558594 3.363281 5.875 C 1.746094 6.421875 0.800781 7.226562 0.800781 8 C 0.800781 8.773438 1.746094 9.578125 3.363281 10.125 M 10.375 10.640625 C 10.988281 10.554688 11.550781 10.441406 12.0625 10.300781 C 11.921875 9.792969 11.734375 9.257812 11.507812 8.71875 C 11.34375 9.042969 11.164062 9.367188 10.976562 9.691406 C 10.78125 10.019531 10.582031 10.335938 10.375 10.640625 M 5.621094 10.640625 C 5.417969 10.335938 5.214844 10.019531 5.023438 9.691406 C 4.832031 9.367188 4.65625 9.042969 4.488281 8.71875 C 4.265625 9.257812 4.078125 9.792969 3.9375 10.300781 C 4.449219 10.441406 5.011719 10.554688 5.621094 10.640625 M 4.894531 14.402344 C 5.644531 14.402344 6.589844 13.886719 7.566406 13.019531 C 7.0625 12.519531 6.5625 11.941406 6.085938 11.300781 C 5.257812 11.210938 4.488281 11.066406 3.792969 10.878906 C 3.574219 11.855469 3.535156 12.722656 3.707031 13.363281 C 3.824219 13.792969 4.027344 14.097656 4.3125 14.257812 C 4.480469 14.351562 4.675781 14.402344 4.894531 14.402344 M 11.105469 14.398438 C 11.324219 14.398438 11.519531 14.351562 11.6875 14.257812 C 11.972656 14.09375 12.175781 13.792969 12.292969 13.363281 C 12.464844 12.722656 12.425781 11.855469 12.207031 10.878906 C 11.511719 11.070312 10.738281 11.210938 9.910156 11.300781 C 9.433594 11.941406 8.9375 12.519531 8.433594 13.019531 C 9.410156 13.886719 10.359375 14.398438 11.105469 14.398438 M 8 12.609375 C 8.371094 12.238281 8.742188 11.824219 9.105469 11.367188 C 8.746094 11.386719 8.394531 11.433594 8.015625 11.433594 C 7.640625 11.433594 7.253906 11.386719 6.894531 11.367188 C 7.257812 11.824219 7.628906 12.238281 8 12.609375 M 4.824219 0.8125 C 4.464844 0.8125 4.207031 0.882812 3.917969 1.046875 C 3.4375 1.316406 3.109375 1.78125 2.933594 2.429688 C 2.742188 3.148438 2.757812 4.089844 2.980469 5.167969 C 1.082031 5.835938 0 6.863281 0 8 C 0 9.136719 1.085938 10.164062 2.980469 10.832031 C 2.757812 11.910156 2.742188 12.851562 2.933594 13.570312 C 3.109375 14.214844 3.4375 14.683594 3.917969 14.953125 C 4.207031 15.117188 4.554688 15.1875 4.914062 15.1875 C 5.808594 15.1875 6.863281 14.679688 8 13.695312 C 9.136719 14.679688 10.207031 15.199219 11.105469 15.199219 C 11.464844 15.199219 11.792969 15.117188 12.082031 14.953125 C 12.5625 14.683594 12.890625 14.214844 13.066406 13.570312 C 13.257812 12.851562 13.238281 11.910156 13.019531 10.835938 C 14.914062 10.164062 16 9.136719 16 8 C 16 6.863281 14.914062 5.835938 13.019531 5.167969 C 13.242188 4.089844 13.257812 3.148438 13.066406 2.429688 C 12.890625 1.785156 12.5625 1.316406 12.082031 1.046875 C 11.792969 0.882812 11.464844 0.800781 11.105469 0.800781 C 10.207031 0.800781 9.136719 1.320312 8 2.304688 C 6.863281 1.320312 5.789062 0.8125 4.890625 0.8125 Z M 3.945312 4.875 C 3.851562 4.410156 3.789062 3.976562 3.785156 3.59375 C 3.78125 3.25 3.832031 2.949219 3.898438 2.6875 C 4 2.308594 4.171875 2.050781 4.410156 1.914062 C 4.546875 1.839844 4.710938 1.785156 4.898438 1.785156 C 5.53125 1.785156 6.371094 2.222656 7.273438 2.992188 C 6.828125 3.449219 6.394531 3.957031 5.980469 4.511719 C 5.261719 4.589844 4.578125 4.710938 3.945312 4.875 Z M 8.726562 2.992188 C 9.628906 2.222656 10.46875 1.800781 11.105469 1.800781 C 11.289062 1.800781 11.453125 1.839844 11.589844 1.917969 C 11.824219 2.050781 11.996094 2.3125 12.097656 2.6875 C 12.273438 3.253906 12.25 4 12.054688 4.875 C 11.421875 4.710938 10.738281 4.589844 10.019531 4.511719 C 9.605469 3.957031 9.171875 3.449219 8.726562 2.992188 Z M 7.335938 4.410156 C 7.554688 4.152344 7.777344 3.90625 8 3.675781 C 8.222656 3.90625 8.445312 4.152344 8.664062 4.410156 C 8.441406 4.402344 8.21875 4.398438 8 4.398438 C 7.78125 4.398438 7.558594 4.402344 7.335938 4.410156 Z M 6.523438 5.460938 C 7.007812 5.421875 7.5 5.390625 8 5.390625 C 8.5 5.390625 8.992188 5.421875 9.472656 5.460938 C 9.761719 5.863281 10.035156 6.285156 10.285156 6.714844 C 10.53125 7.128906 10.761719 7.5625 10.96875 8 C 10.761719 8.4375 10.53125 8.871094 10.285156 9.285156 C 10.035156 9.714844 9.761719 10.136719 9.472656 10.539062 C 8.992188 10.578125 8.5 10.632812 8 10.632812 C 7.5 10.632812 7.003906 10.578125 6.523438 10.539062 C 6.238281 10.136719 5.964844 9.714844 5.710938 9.285156 C 5.46875 8.871094 5.238281 8.4375 5.027344 8 C 5.238281 7.5625 5.46875 7.128906 5.714844 6.714844 C 5.964844 6.285156 6.238281 5.863281 6.523438 5.460938 Z M 11.484375 6.804688 C 11.375 6.601562 11.261719 6.402344 11.148438 6.207031 C 11.035156 6.011719 10.914062 5.820312 10.789062 5.625 C 11.144531 5.683594 11.488281 5.757812 11.8125 5.839844 C 11.71875 6.152344 11.609375 6.476562 11.484375 6.804688 Z M 4.1875 5.839844 C 4.511719 5.757812 4.855469 5.683594 5.207031 5.625 C 5.085938 5.820312 4.964844 6.011719 4.851562 6.207031 C 4.738281 6.402344 4.625 6.601562 4.515625 6.804688 C 4.390625 6.476562 4.277344 6.15625 4.1875 5.839844 Z M 12.074219 8 C 12.355469 7.367188 12.589844 6.742188 12.769531 6.132812 C 14.152344 6.636719 15 7.34375 15 8 C 15 8.65625 14.152344 9.363281 12.769531 9.867188 C 12.589844 9.257812 12.355469 8.632812 12.074219 8 Z M 3.226562 9.863281 C 1.847656 9.363281 1 8.65625 1 8 C 1 7.34375 1.847656 6.636719 3.226562 6.136719 C 3.410156 6.742188 3.644531 7.367188 3.925781 8 C 3.644531 8.632812 3.410156 9.257812 3.226562 9.863281 Z M 10.789062 10.375 C 10.914062 10.179688 11.035156 9.988281 11.148438 9.792969 C 11.261719 9.597656 11.375 9.398438 11.484375 9.195312 C 11.609375 9.523438 11.71875 9.847656 11.8125 10.160156 C 11.488281 10.242188 11.144531 10.316406 10.789062 10.375 Z M 4.1875 10.160156 C 4.277344 9.847656 4.390625 9.523438 4.515625 9.195312 C 4.625 9.398438 4.738281 9.597656 4.851562 9.792969 C 4.964844 9.988281 5.085938 10.179688 5.207031 10.375 C 4.851562 10.3125 4.511719 10.242188 4.1875 10.160156 Z M 4.894531 14.199219 C 4.710938 14.199219 4.546875 14.160156 4.414062 14.085938 C 4.175781 13.949219 4.003906 13.6875 3.902344 13.3125 C 3.734375 12.742188 3.753906 11.992188 3.945312 11.125 C 4.578125 11.289062 5.261719 11.410156 5.980469 11.488281 C 6.394531 12.042969 6.828125 12.550781 7.273438 13.007812 C 6.371094 13.777344 5.53125 14.199219 4.894531 14.199219 Z M 10.019531 11.488281 C 10.738281 11.410156 11.417969 11.289062 12.054688 11.125 C 12.277344 12.074219 12.292969 12.828125 12.097656 13.3125 C 11.996094 13.6875 11.824219 13.949219 11.589844 14.082031 C 11.453125 14.160156 11.289062 14.199219 11.105469 14.199219 L 11.105469 14.398438 L 11.105469 14.199219 C 10.46875 14.199219 9.628906 13.777344 8.726562 13.007812 C 9.171875 12.550781 9.605469 12.042969 10.019531 11.488281 Z M 8 12.324219 C 7.777344 12.09375 7.554688 11.847656 7.335938 11.589844 C 7.558594 11.597656 7.78125 11.601562 8 11.601562 C 8.21875 11.601562 8.441406 11.597656 8.664062 11.589844 C 8.445312 11.847656 8.222656 12.09375 8 12.324219 Z M 8 12.324219 "/>
</g>
</svg>
